<svg xmlns="http://www.w3.org/2000/svg" xmlns:xlink="http://www.w3.org/1999/xlink" width="500" zoomAndPan="magnify" viewBox="0 0 375 74.999997" height="100" preserveAspectRatio="xMidYMid meet" version="1.0"><defs><g/><clipPath id="67b62e1ae9"><path d="M 3.761719 11.652344 L 99.761719 11.652344 L 99.761719 63.402344 L 3.761719 63.402344 Z M 3.761719 11.652344 " clip-rule="nonzero"/></clipPath></defs><g clip-path="url(#67b62e1ae9)"><path fill="#1dacff" d="M 96.273438 41.75 C 94.128906 39.609375 91.21875 38.242188 88.003906 38.089844 C 87.902344 38.074219 87.804688 38.054688 87.703125 38.054688 L 21.175781 38.054688 C 19.628906 38.054688 18.21875 37.421875 17.199219 36.402344 C 16.171875 35.382812 15.542969 33.96875 15.542969 32.425781 C 15.542969 30.878906 16.179688 29.46875 17.199219 28.449219 C 18.21875 27.429688 19.628906 26.792969 21.175781 26.792969 L 88.054688 26.792969 C 89.125 26.792969 90 25.921875 90 24.851562 C 90 24.8125 89.992188 24.777344 89.984375 24.742188 C 89.984375 24.652344 89.972656 24.554688 89.960938 24.464844 C 89.960938 24.453125 89.953125 24.445312 89.953125 24.433594 C 89.941406 24.375 89.929688 24.316406 89.910156 24.265625 L 86.355469 14.171875 C 85.898438 12.875 85.234375 11.683594 83.875 11.683594 L 27.117188 11.683594 C 20.199219 11.683594 18.410156 15.453125 17.851562 16.699219 L 12.910156 27.734375 C 12.121094 29.121094 11.664062 30.710938 11.664062 32.417969 C 11.664062 35.035156 12.734375 37.421875 14.460938 39.140625 C 16.1875 40.867188 18.566406 41.9375 21.183594 41.9375 L 87.394531 41.9375 C 89.78125 41.9375 91.957031 42.910156 93.53125 44.488281 C 95.109375 46.066406 96.085938 48.234375 96.085938 50.628906 C 96.085938 53.015625 95.109375 55.1875 93.53125 56.765625 C 91.957031 58.34375 89.78125 59.320312 87.394531 59.320312 L 8.445312 59.320312 L 8.949219 57.886719 L 87.113281 57.886719 C 87.125 57.886719 87.144531 57.886719 87.15625 57.886719 C 87.171875 57.886719 87.191406 57.886719 87.203125 57.886719 C 91.171875 57.886719 94.40625 54.65625 94.40625 50.691406 C 94.40625 46.722656 91.171875 43.488281 87.203125 43.488281 C 86.132812 43.488281 85.257812 44.355469 85.257812 45.433594 C 85.257812 46.503906 86.125 47.375 87.203125 47.375 C 89.03125 47.375 90.519531 48.863281 90.519531 50.691406 C 90.519531 52.519531 89.03125 54.007812 87.203125 54.007812 C 87.183594 54.007812 87.171875 54.007812 87.152344 54.007812 C 87.132812 54.007812 87.117188 54.007812 87.101562 54.007812 L 7.597656 54.007812 C 7.589844 54.007812 7.585938 54.007812 7.578125 54.007812 C 6.777344 54 6.019531 54.5 5.738281 55.304688 L 3.871094 60.621094 C 3.859375 60.664062 3.851562 60.710938 3.839844 60.753906 C 3.824219 60.8125 3.808594 60.871094 3.792969 60.933594 C 3.78125 61.011719 3.773438 61.089844 3.773438 61.167969 C 3.773438 61.199219 3.761719 61.238281 3.761719 61.269531 C 3.761719 61.289062 3.769531 61.300781 3.769531 61.3125 C 3.769531 61.390625 3.78125 61.472656 3.792969 61.550781 C 3.800781 61.601562 3.808594 61.652344 3.820312 61.699219 C 3.839844 61.769531 3.859375 61.832031 3.882812 61.902344 C 3.902344 61.953125 3.914062 62.007812 3.941406 62.058594 C 3.96875 62.121094 4.003906 62.179688 4.042969 62.238281 C 4.070312 62.28125 4.09375 62.332031 4.128906 62.378906 C 4.164062 62.4375 4.21875 62.488281 4.261719 62.539062 C 4.292969 62.578125 4.332031 62.621094 4.371094 62.660156 C 4.421875 62.707031 4.472656 62.75 4.53125 62.796875 C 4.578125 62.828125 4.621094 62.867188 4.671875 62.898438 C 4.722656 62.929688 4.78125 62.957031 4.832031 62.988281 C 4.890625 63.019531 4.953125 63.050781 5.019531 63.078125 C 5.039062 63.082031 5.050781 63.097656 5.070312 63.101562 C 5.128906 63.121094 5.179688 63.128906 5.230469 63.148438 C 5.269531 63.160156 5.308594 63.171875 5.351562 63.179688 C 5.472656 63.207031 5.597656 63.21875 5.710938 63.21875 L 87.394531 63.21875 C 90.859375 63.21875 94 61.800781 96.277344 59.523438 C 98.554688 57.246094 99.972656 54.105469 99.972656 50.640625 C 99.964844 47.171875 98.546875 44.027344 96.273438 41.75 Z M 96.273438 41.75 " fill-opacity="1" fill-rule="nonzero"/></g><g fill="#1dacff" fill-opacity="1"><g transform="translate(112.25409, 60.171757)"><g><path d="M 1.328125 -31.609375 C 1.328125 -33.921875 1.765625 -36.097656 2.640625 -38.140625 C 3.523438 -40.179688 4.738281 -41.972656 6.28125 -43.515625 C 7.832031 -45.066406 9.617188 -46.28125 11.640625 -47.15625 C 13.671875 -48.039062 15.835938 -48.484375 18.140625 -48.484375 L 35.25 -48.484375 L 35.25 -42.765625 L 18.140625 -42.765625 C 16.660156 -42.765625 15.257812 -42.476562 13.9375 -41.90625 C 12.613281 -41.332031 11.441406 -40.539062 10.421875 -39.53125 C 9.410156 -38.53125 8.617188 -37.367188 8.046875 -36.046875 C 7.472656 -34.722656 7.1875 -33.3125 7.1875 -31.8125 L 7.1875 -16.71875 C 7.1875 -15.21875 7.472656 -13.800781 8.046875 -12.46875 C 8.617188 -11.144531 9.410156 -9.984375 10.421875 -8.984375 C 11.441406 -7.984375 12.613281 -7.195312 13.9375 -6.625 C 15.257812 -6.050781 16.660156 -5.765625 18.140625 -5.765625 L 35.25 -5.765625 L 35.25 0.03125 L 18.140625 0.03125 C 15.835938 0.03125 13.671875 -0.40625 11.640625 -1.28125 C 9.617188 -2.164062 7.832031 -3.382812 6.28125 -4.9375 C 4.738281 -6.5 3.523438 -8.296875 2.640625 -10.328125 C 1.765625 -12.359375 1.328125 -14.507812 1.328125 -16.78125 Z M 13.703125 -31.8125 C 13.703125 -32.625 13.90625 -33.359375 14.3125 -34.015625 C 14.71875 -34.679688 15.25 -35.21875 15.90625 -35.625 C 16.570312 -36.03125 17.316406 -36.234375 18.140625 -36.234375 L 35.25 -36.234375 L 35.25 -42.0625 L 18.140625 -42.0625 C 16.742188 -42.0625 15.425781 -41.789062 14.1875 -41.25 C 12.957031 -40.707031 11.867188 -39.96875 10.921875 -39.03125 C 9.972656 -38.09375 9.226562 -37 8.6875 -35.75 C 8.144531 -34.507812 7.875 -33.195312 7.875 -31.8125 L 7.875 -24.625 L 35.25 -24.625 L 35.25 -30.484375 L 13.703125 -30.484375 Z M 7.875 -23.921875 L 7.875 -16.71875 C 7.875 -15.320312 8.144531 -14 8.6875 -12.75 C 9.226562 -11.507812 9.972656 -10.421875 10.921875 -9.484375 C 11.867188 -8.546875 12.957031 -7.804688 14.1875 -7.265625 C 15.425781 -6.722656 16.742188 -6.453125 18.140625 -6.453125 L 35.25 -6.453125 L 35.25 -12.28125 L 18.140625 -12.28125 C 17.316406 -12.28125 16.570312 -12.484375 15.90625 -12.890625 C 15.25 -13.296875 14.71875 -13.832031 14.3125 -14.5 C 13.90625 -15.175781 13.703125 -15.914062 13.703125 -16.71875 L 13.703125 -18.03125 L 35.25 -18.03125 L 35.25 -23.921875 Z M 7.875 -23.921875 "/></g></g></g><g fill="#1dacff" fill-opacity="1"><g transform="translate(155.036789, 60.171757)"><g><path d="M 26.25 -15.921875 C 26.25 -14.640625 26.003906 -13.425781 25.515625 -12.28125 C 25.035156 -11.132812 24.363281 -10.125 23.5 -9.25 C 22.632812 -8.375 21.628906 -7.6875 20.484375 -7.1875 C 19.335938 -6.695312 18.101562 -6.453125 16.78125 -6.453125 C 15.476562 -6.453125 14.253906 -6.695312 13.109375 -7.1875 C 11.960938 -7.6875 10.953125 -8.375 10.078125 -9.25 C 9.203125 -10.125 8.519531 -11.132812 8.03125 -12.28125 C 7.550781 -13.425781 7.3125 -14.640625 7.3125 -15.921875 C 7.3125 -17.222656 7.550781 -18.441406 8.03125 -19.578125 C 8.519531 -20.710938 9.203125 -21.707031 10.078125 -22.5625 C 10.953125 -23.425781 11.960938 -24.109375 13.109375 -24.609375 C 14.253906 -25.109375 15.476562 -25.359375 16.78125 -25.359375 C 17.289062 -25.359375 17.773438 -25.332031 18.234375 -25.28125 C 18.703125 -25.238281 19.144531 -25.128906 19.5625 -24.953125 L 19.5625 -18.5625 C 18.988281 -19.09375 18.335938 -19.410156 17.609375 -19.515625 C 16.878906 -19.628906 16.175781 -19.546875 15.5 -19.265625 C 14.832031 -18.992188 14.269531 -18.570312 13.8125 -18 C 13.363281 -17.425781 13.140625 -16.734375 13.140625 -15.921875 C 13.179688 -14.953125 13.523438 -14.113281 14.171875 -13.40625 C 14.828125 -12.695312 15.695312 -12.34375 16.78125 -12.34375 C 17.863281 -12.34375 18.726562 -12.722656 19.375 -13.484375 C 20.03125 -14.242188 20.359375 -15.132812 20.359375 -16.15625 L 20.359375 -32.765625 C 20.359375 -34.597656 20.671875 -36.359375 21.296875 -38.046875 C 21.921875 -39.734375 22.796875 -41.273438 23.921875 -42.671875 C 25.046875 -44.078125 26.363281 -45.273438 27.875 -46.265625 C 29.394531 -47.265625 31.046875 -47.972656 32.828125 -48.390625 L 32.828125 -42.265625 C 31.546875 -41.773438 30.410156 -41.0625 29.421875 -40.125 C 28.429688 -39.1875 27.65625 -38.085938 27.09375 -36.828125 C 26.53125 -35.578125 26.25 -34.222656 26.25 -32.765625 Z M 16.78125 -31.96875 C 17.289062 -31.96875 17.773438 -31.953125 18.234375 -31.921875 C 18.703125 -31.890625 19.144531 -31.816406 19.5625 -31.703125 L 19.5625 -25.75 C 19.144531 -25.863281 18.703125 -25.960938 18.234375 -26.046875 C 17.773438 -26.128906 17.289062 -26.171875 16.78125 -26.171875 C 15.382812 -26.171875 14.0625 -25.898438 12.8125 -25.359375 C 11.570312 -24.828125 10.484375 -24.085938 9.546875 -23.140625 C 8.609375 -22.191406 7.867188 -21.097656 7.328125 -19.859375 C 6.785156 -18.617188 6.515625 -17.304688 6.515625 -15.921875 C 6.515625 -14.523438 6.78125 -13.207031 7.3125 -11.96875 C 7.84375 -10.738281 8.582031 -9.648438 9.53125 -8.703125 C 10.476562 -7.753906 11.566406 -7.007812 12.796875 -6.46875 C 14.035156 -5.925781 15.363281 -5.65625 16.78125 -5.65625 C 18.1875 -5.65625 19.507812 -5.925781 20.75 -6.46875 C 21.988281 -7.007812 23.082031 -7.753906 24.03125 -8.703125 C 24.976562 -9.648438 25.71875 -10.738281 26.25 -11.96875 C 26.78125 -13.207031 27.046875 -14.523438 27.046875 -15.921875 L 27.046875 -32.765625 C 27.046875 -34.023438 27.289062 -35.226562 27.78125 -36.375 C 28.28125 -37.519531 28.960938 -38.53125 29.828125 -39.40625 C 30.703125 -40.289062 31.703125 -40.96875 32.828125 -41.4375 L 32.828125 -15.921875 C 32.828125 -13.710938 32.410156 -11.632812 31.578125 -9.6875 C 30.753906 -7.75 29.601562 -6.039062 28.125 -4.5625 C 26.65625 -3.082031 24.953125 -1.929688 23.015625 -1.109375 C 21.085938 -0.285156 19.007812 0.125 16.78125 0.125 C 14.570312 0.125 12.488281 -0.285156 10.53125 -1.109375 C 8.582031 -1.929688 6.867188 -3.082031 5.390625 -4.5625 C 3.910156 -6.039062 2.75 -7.75 1.90625 -9.6875 C 1.070312 -11.632812 0.65625 -13.710938 0.65625 -15.921875 C 0.65625 -18.078125 1.070312 -20.117188 1.90625 -22.046875 C 2.75 -23.984375 3.910156 -25.695312 5.390625 -27.1875 C 6.867188 -28.675781 8.582031 -29.84375 10.53125 -30.6875 C 12.488281 -31.539062 14.570312 -31.96875 16.78125 -31.96875 Z M 16.78125 -31.96875 "/></g></g></g><g fill="#1dacff" fill-opacity="1"><g transform="translate(194.708531, 60.171757)"><g><path d="M 16.640625 -5.359375 C 18.960938 -5.359375 20.988281 -6.003906 22.71875 -7.296875 C 24.445312 -8.585938 25.644531 -10.398438 26.3125 -12.734375 C 26.726562 -11.234375 27.488281 -9.882812 28.59375 -8.6875 C 29.695312 -7.488281 31.007812 -6.601562 32.53125 -6.03125 L 32.53125 0.0625 C 30.257812 -0.488281 28.1875 -1.492188 26.3125 -2.953125 C 24.945312 -1.816406 23.429688 -0.972656 21.765625 -0.421875 C 20.097656 0.117188 18.390625 0.390625 16.640625 0.390625 C 14.441406 0.390625 12.375 -0.0195312 10.4375 -0.84375 C 8.507812 -1.664062 6.816406 -2.8125 5.359375 -4.28125 C 3.898438 -5.75 2.765625 -7.445312 1.953125 -9.375 C 1.140625 -11.3125 0.734375 -13.375 0.734375 -15.5625 L 0.734375 -31.765625 L 6.546875 -31.765625 L 6.546875 -15.421875 C 6.546875 -14.054688 6.804688 -12.765625 7.328125 -11.546875 C 7.847656 -10.335938 8.570312 -9.273438 9.5 -8.359375 C 10.425781 -7.441406 11.5 -6.71875 12.71875 -6.1875 C 13.945312 -5.65625 15.253906 -5.378906 16.640625 -5.359375 Z M 16.640625 -11.84375 C 15.984375 -11.84375 15.375 -12.015625 14.8125 -12.359375 C 14.25 -12.703125 13.800781 -13.148438 13.46875 -13.703125 C 13.132812 -14.253906 12.96875 -14.847656 12.96875 -15.484375 L 12.96875 -31.765625 L 7.3125 -31.765625 L 7.3125 -15.484375 C 7.3125 -14.203125 7.550781 -12.992188 8.03125 -11.859375 C 8.519531 -10.722656 9.1875 -9.71875 10.03125 -8.84375 C 10.882812 -7.976562 11.878906 -7.300781 13.015625 -6.8125 C 14.160156 -6.332031 15.367188 -6.09375 16.640625 -6.09375 C 17.921875 -6.09375 19.125 -6.332031 20.25 -6.8125 C 21.375 -7.300781 22.359375 -7.976562 23.203125 -8.84375 C 24.054688 -9.71875 24.726562 -10.722656 25.21875 -11.859375 C 25.707031 -12.992188 25.953125 -14.203125 25.953125 -15.484375 L 25.953125 -31.765625 L 20.25 -31.765625 L 20.25 -15.484375 C 20.25 -14.828125 20.082031 -14.222656 19.75 -13.671875 C 19.425781 -13.117188 18.992188 -12.675781 18.453125 -12.34375 C 17.910156 -12.007812 17.304688 -11.84375 16.640625 -11.84375 Z M 32.53125 -31.765625 L 26.703125 -31.765625 L 26.703125 -15.484375 C 26.703125 -14.203125 26.945312 -12.988281 27.4375 -11.84375 C 27.925781 -10.695312 28.601562 -9.675781 29.46875 -8.78125 C 30.34375 -7.894531 31.363281 -7.207031 32.53125 -6.71875 Z M 32.53125 -31.765625 "/></g></g></g><g fill="#1dacff" fill-opacity="1"><g transform="translate(234.380268, 60.171757)"><g><path d="M 0.796875 -39.453125 C 0.796875 -41.390625 1.085938 -43.007812 1.671875 -44.3125 C 2.253906 -45.613281 3.019531 -46.640625 3.96875 -47.390625 C 4.914062 -48.140625 5.957031 -48.632812 7.09375 -48.875 C 8.226562 -49.125 9.363281 -49.132812 10.5 -48.90625 C 11.644531 -48.6875 12.691406 -48.265625 13.640625 -47.640625 C 14.585938 -47.015625 15.347656 -46.21875 15.921875 -45.25 L 24.625 -30.34375 L 33.359375 -45.25 C 33.929688 -46.21875 34.695312 -47.015625 35.65625 -47.640625 C 36.613281 -48.265625 37.660156 -48.6875 38.796875 -48.90625 C 39.941406 -49.132812 41.082031 -49.125 42.21875 -48.875 C 43.351562 -48.632812 44.394531 -48.140625 45.34375 -47.390625 C 46.289062 -46.640625 47.050781 -45.613281 47.625 -44.3125 C 48.195312 -43.007812 48.484375 -41.390625 48.484375 -39.453125 L 48.515625 0 L 42.421875 0 L 42.421875 -38.984375 C 42.421875 -40.085938 42.171875 -40.921875 41.671875 -41.484375 C 41.179688 -42.046875 40.585938 -42.28125 39.890625 -42.1875 C 39.203125 -42.101562 38.5625 -41.609375 37.96875 -40.703125 L 25.8125 -22.015625 C 25.414062 -21.390625 25.046875 -21.050781 24.703125 -21 C 24.359375 -20.945312 23.96875 -21.238281 23.53125 -21.875 L 11.359375 -40.703125 C 10.753906 -41.609375 10.097656 -42.101562 9.390625 -42.1875 C 8.691406 -42.28125 8.09375 -42.046875 7.59375 -41.484375 C 7.09375 -40.921875 6.84375 -40.085938 6.84375 -38.984375 L 6.8125 0 L 0.796875 0 Z M 35.671875 0 L 36.46875 -26.8125 L 29.859375 -15.859375 C 28.816406 -14.359375 27.664062 -13.359375 26.40625 -12.859375 C 25.15625 -12.359375 23.910156 -12.367188 22.671875 -12.890625 C 21.429688 -13.410156 20.316406 -14.441406 19.328125 -15.984375 L 13 -25.921875 L 13.640625 0 L 7.578125 0 L 7.578125 -38.984375 C 7.578125 -39.953125 7.765625 -40.628906 8.140625 -41.015625 C 8.515625 -41.410156 8.957031 -41.539062 9.46875 -41.40625 C 9.976562 -41.269531 10.429688 -40.894531 10.828125 -40.28125 L 22.90625 -21.515625 C 23.457031 -20.648438 24.046875 -20.21875 24.671875 -20.21875 C 25.296875 -20.21875 25.875 -20.660156 26.40625 -21.546875 L 38.484375 -40.28125 C 38.890625 -40.894531 39.335938 -41.269531 39.828125 -41.40625 C 40.328125 -41.539062 40.757812 -41.410156 41.125 -41.015625 C 41.488281 -40.628906 41.671875 -39.953125 41.671875 -38.984375 L 41.703125 0 Z M 35.671875 0 "/></g></g></g><g fill="#1dacff" fill-opacity="1"><g transform="translate(290.500356, 60.171757)"><g><path d="M 6.890625 -15.890625 C 6.890625 -14.429688 7.15625 -13.078125 7.6875 -11.828125 C 8.226562 -10.585938 8.96875 -9.5 9.90625 -8.5625 C 10.84375 -7.625 11.9375 -6.890625 13.1875 -6.359375 C 14.4375 -5.828125 15.753906 -5.5625 17.140625 -5.5625 C 18.835938 -5.5625 20.472656 -5.96875 22.046875 -6.78125 C 22.523438 -5.96875 23.101562 -5.1875 23.78125 -4.4375 C 24.457031 -3.6875 25.179688 -2.976562 25.953125 -2.3125 C 24.648438 -1.519531 23.269531 -0.894531 21.8125 -0.4375 C 20.351562 0.0078125 18.796875 0.234375 17.140625 0.234375 C 15.003906 0.234375 12.957031 -0.175781 11 -1 C 9.050781 -1.832031 7.328125 -2.984375 5.828125 -4.453125 C 4.328125 -5.921875 3.140625 -7.628906 2.265625 -9.578125 C 1.390625 -11.535156 0.953125 -13.640625 0.953125 -15.890625 C 0.953125 -18.140625 1.367188 -20.238281 2.203125 -22.1875 C 3.046875 -24.144531 4.207031 -25.863281 5.6875 -27.34375 C 7.164062 -28.820312 8.878906 -29.976562 10.828125 -30.8125 C 12.785156 -31.65625 14.890625 -32.078125 17.140625 -32.078125 C 19.367188 -32.078125 21.453125 -31.65625 23.390625 -30.8125 C 25.335938 -29.976562 27.050781 -28.820312 28.53125 -27.34375 C 30.007812 -25.863281 31.164062 -24.144531 32 -22.1875 C 32.84375 -20.238281 33.265625 -18.140625 33.265625 -15.890625 L 33.265625 -6.71875 C 31.335938 -7.488281 29.867188 -8.703125 28.859375 -10.359375 C 27.847656 -12.015625 27.34375 -13.859375 27.34375 -15.890625 C 27.34375 -17.296875 27.078125 -18.617188 26.546875 -19.859375 C 26.015625 -21.097656 25.285156 -22.191406 24.359375 -23.140625 C 23.429688 -24.085938 22.347656 -24.820312 21.109375 -25.34375 C 19.878906 -25.875 18.554688 -26.140625 17.140625 -26.140625 C 15.710938 -26.140625 14.378906 -25.875 13.140625 -25.34375 C 11.898438 -24.820312 10.8125 -24.085938 9.875 -23.140625 C 8.9375 -22.191406 8.203125 -21.097656 7.671875 -19.859375 C 7.148438 -18.617188 6.890625 -17.296875 6.890625 -15.890625 Z M 13.5 -15.890625 C 13.5 -16.523438 13.664062 -17.117188 14 -17.671875 C 14.332031 -18.222656 14.773438 -18.671875 15.328125 -19.015625 C 15.878906 -19.359375 16.484375 -19.53125 17.140625 -19.53125 C 17.828125 -19.53125 18.453125 -19.359375 19.015625 -19.015625 C 19.578125 -18.671875 20.007812 -18.210938 20.3125 -17.640625 C 20.625 -17.066406 20.757812 -16.4375 20.71875 -15.75 C 20.695312 -13.875 20.992188 -12.066406 21.609375 -10.328125 C 22.222656 -8.585938 23.097656 -7 24.234375 -5.5625 C 25.378906 -4.125 26.71875 -2.898438 28.25 -1.890625 C 29.78125 -0.890625 31.453125 -0.179688 33.265625 0.234375 L 33.265625 -5.953125 C 31.847656 -6.460938 30.644531 -7.21875 29.65625 -8.21875 C 28.664062 -9.226562 27.914062 -10.394531 27.40625 -11.71875 C 26.894531 -13.039062 26.640625 -14.429688 26.640625 -15.890625 C 26.640625 -17.191406 26.394531 -18.414062 25.90625 -19.5625 C 25.425781 -20.707031 24.75 -21.710938 23.875 -22.578125 C 23.007812 -23.453125 22 -24.140625 20.84375 -24.640625 C 19.695312 -25.140625 18.460938 -25.390625 17.140625 -25.390625 C 15.796875 -25.390625 14.546875 -25.140625 13.390625 -24.640625 C 12.234375 -24.140625 11.21875 -23.453125 10.34375 -22.578125 C 9.46875 -21.710938 8.785156 -20.707031 8.296875 -19.5625 C 7.816406 -18.414062 7.578125 -17.191406 7.578125 -15.890625 C 7.578125 -14.546875 7.828125 -13.296875 8.328125 -12.140625 C 8.835938 -10.992188 9.535156 -9.988281 10.421875 -9.125 C 11.304688 -8.269531 12.328125 -7.597656 13.484375 -7.109375 C 14.640625 -6.628906 15.859375 -6.390625 17.140625 -6.390625 C 17.984375 -6.390625 18.78125 -6.484375 19.53125 -6.671875 C 20.28125 -6.859375 20.972656 -7.128906 21.609375 -7.484375 C 21.128906 -8.410156 20.734375 -9.378906 20.421875 -10.390625 C 20.109375 -11.410156 19.890625 -12.414062 19.765625 -13.40625 C 19.472656 -12.988281 19.085938 -12.675781 18.609375 -12.46875 C 18.140625 -12.269531 17.648438 -12.171875 17.140625 -12.171875 C 16.484375 -12.171875 15.878906 -12.335938 15.328125 -12.671875 C 14.773438 -13.003906 14.332031 -13.453125 14 -14.015625 C 13.664062 -14.578125 13.5 -15.203125 13.5 -15.890625 Z M 13.5 -15.890625 "/></g></g></g><g fill="#1dacff" fill-opacity="1"><g transform="translate(331.330428, 60.171757)"><g><path d="M 6.359375 0 L 0.6875 0 L 0.6875 -16.21875 C 0.6875 -18.351562 1.0625 -20.363281 1.8125 -22.25 C 2.570312 -24.144531 3.664062 -25.8125 5.09375 -27.25 C 6.53125 -28.695312 8.269531 -29.828125 10.3125 -30.640625 C 12.351562 -31.460938 14.664062 -31.875 17.25 -31.875 L 17.25 -26.28125 C 15 -26.28125 13.054688 -25.820312 11.421875 -24.90625 C 9.785156 -23.988281 8.53125 -22.769531 7.65625 -21.25 C 6.789062 -19.726562 6.359375 -18.050781 6.359375 -16.21875 Z M 12.703125 -16.15625 C 12.703125 -17.164062 13.0625 -18.035156 13.78125 -18.765625 C 14.5 -19.492188 15.65625 -19.859375 17.25 -19.859375 L 17.25 -25.578125 C 15.195312 -25.578125 13.398438 -25.144531 11.859375 -24.28125 C 10.328125 -23.425781 9.140625 -22.289062 8.296875 -20.875 C 7.460938 -19.46875 7.046875 -17.914062 7.046875 -16.21875 L 7.046875 0 L 12.703125 0 Z M 12.703125 -16.15625 "/></g></g></g><g fill="#1dacff" fill-opacity="1"><g transform="translate(355.480481, 60.171757)"><g><path d="M 6.953125 -26.015625 L 6.953125 -33.265625 C 6.953125 -34.671875 6.679688 -35.992188 6.140625 -37.234375 C 5.597656 -38.472656 4.84375 -39.5625 3.875 -40.5 C 2.90625 -41.4375 1.769531 -42.125 0.46875 -42.5625 L 0.46875 -48.578125 C 2.007812 -48.253906 3.488281 -47.6875 4.90625 -46.875 C 6.332031 -46.070312 7.609375 -44.992188 8.734375 -43.640625 C 9.859375 -42.285156 10.742188 -40.628906 11.390625 -38.671875 C 12.046875 -36.722656 12.375 -34.4375 12.375 -31.8125 L 16.21875 -31.8125 L 16.21875 -26.015625 Z M 6.1875 -33.265625 C 6.1875 -34.492188 5.941406 -35.675781 5.453125 -36.8125 C 4.972656 -37.957031 4.300781 -38.960938 3.4375 -39.828125 C 2.582031 -40.703125 1.59375 -41.359375 0.46875 -41.796875 L 0.46875 -15.859375 C 0.46875 -13.648438 0.878906 -11.570312 1.703125 -9.625 C 2.535156 -7.6875 3.675781 -5.976562 5.125 -4.5 C 6.582031 -3.019531 8.269531 -1.859375 10.1875 -1.015625 C 12.113281 -0.179688 14.175781 0.234375 16.375 0.234375 L 16.375 -5.5 C 14.96875 -5.5 13.644531 -5.765625 12.40625 -6.296875 C 11.175781 -6.835938 10.097656 -7.578125 9.171875 -8.515625 C 8.242188 -9.453125 7.515625 -10.546875 6.984375 -11.796875 C 6.453125 -13.046875 6.1875 -14.363281 6.1875 -15.75 Z M 12.703125 -15.75 C 12.703125 -15.09375 12.863281 -14.484375 13.1875 -13.921875 C 13.507812 -13.359375 13.953125 -12.90625 14.515625 -12.5625 C 15.078125 -12.21875 15.695312 -12.046875 16.375 -12.046875 L 16.375 -6.25 C 15.050781 -6.25 13.820312 -6.503906 12.6875 -7.015625 C 11.550781 -7.523438 10.550781 -8.21875 9.6875 -9.09375 C 8.832031 -9.976562 8.160156 -10.988281 7.671875 -12.125 C 7.191406 -13.257812 6.953125 -14.46875 6.953125 -15.75 L 6.953125 -25.25 L 16.21875 -25.25 L 16.21875 -19.53125 L 12.703125 -19.53125 Z M 12.703125 -15.75 "/></g></g></g></svg>