<svg xmlns="http://www.w3.org/2000/svg" xmlns:xlink="http://www.w3.org/1999/xlink" width="500" zoomAndPan="magnify" viewBox="0 0 375 112.499997" height="150" preserveAspectRatio="xMidYMid meet" version="1.0"><defs><g/><clipPath id="3db159206c"><path d="M 22.421875 7.597656 L 94.851562 7.597656 L 94.851562 104.667969 L 22.421875 104.667969 Z M 22.421875 7.597656 " clip-rule="nonzero"/></clipPath><clipPath id="bbcfa9753a"><rect x="0" width="118" y="0" height="29"/></clipPath><clipPath id="637e4001eb"><rect x="0" width="247" y="0" height="72"/></clipPath></defs><g clip-path="url(#3db159206c)"><path fill="#029bda" d="M 28.671875 64.0625 L 28.671875 48.621094 L 42 41.636719 L 42 34.609375 L 24.125 43.929688 L 22.425781 44.808594 L 22.425781 74.15625 L 26.949219 71.886719 L 54.222656 58.203125 L 55.96875 57.34375 L 55.96875 34.324219 L 88.625 17.753906 L 88.601562 33.199219 L 69.050781 43.398438 L 67.351562 44.28125 L 67.351562 93.851562 L 55.945312 87.285156 L 55.945312 65.054688 L 49.699219 68.339844 L 49.699219 90.875 L 51.265625 91.777344 L 68.917969 101.957031 L 73.621094 104.667969 L 73.621094 48.046875 L 93.171875 37.847656 L 94.847656 36.964844 L 94.847656 7.597656 L 90.324219 9.890625 L 51.421875 29.628906 L 49.699219 30.511719 L 49.699219 53.511719 Z M 28.671875 64.0625 " fill-opacity="1" fill-rule="evenodd"/></g><g transform="matrix(1, 0, 0, 1, 166, 68)"><g clip-path="url(#bbcfa9753a)"><g fill="#000000" fill-opacity="1"><g transform="translate(1.055839, 22.369903)"><g><path d="M 15.59375 -8.171875 C 15.59375 -6.484375 15.289062 -5.003906 14.6875 -3.734375 C 14.09375 -2.460938 13.238281 -1.484375 12.125 -0.796875 C 11.019531 -0.109375 9.753906 0.234375 8.328125 0.234375 C 6.910156 0.234375 5.644531 -0.101562 4.53125 -0.78125 C 3.414062 -1.46875 2.550781 -2.441406 1.9375 -3.703125 C 1.320312 -4.972656 1.015625 -6.429688 1.015625 -8.078125 L 1.015625 -8.921875 C 1.015625 -10.609375 1.316406 -12.09375 1.921875 -13.375 C 2.523438 -14.65625 3.378906 -15.640625 4.484375 -16.328125 C 5.597656 -17.015625 6.867188 -17.359375 8.296875 -17.359375 C 9.722656 -17.359375 10.988281 -17.015625 12.09375 -16.328125 C 13.207031 -15.640625 14.066406 -14.65625 14.671875 -13.375 C 15.285156 -12.09375 15.59375 -10.613281 15.59375 -8.9375 Z M 12.015625 -8.953125 C 12.015625 -10.742188 11.691406 -12.101562 11.046875 -13.03125 C 10.410156 -13.96875 9.492188 -14.4375 8.296875 -14.4375 C 7.117188 -14.4375 6.207031 -13.972656 5.5625 -13.046875 C 4.914062 -12.128906 4.585938 -10.78125 4.578125 -9 L 4.578125 -8.171875 C 4.578125 -6.421875 4.898438 -5.0625 5.546875 -4.09375 C 6.191406 -3.132812 7.117188 -2.65625 8.328125 -2.65625 C 9.503906 -2.65625 10.410156 -3.117188 11.046875 -4.046875 C 11.679688 -4.972656 12.003906 -6.328125 12.015625 -8.109375 Z M 12.015625 -8.953125 "/></g></g></g><g fill="#000000" fill-opacity="1"><g transform="translate(25.55415, 22.369903)"><g><path d="M 4.4375 -12.71875 L 4.53125 -11.25 C 5.445312 -12.382812 6.664062 -12.953125 8.1875 -12.953125 C 9.539062 -12.953125 10.546875 -12.554688 11.203125 -11.765625 C 11.859375 -10.972656 12.195312 -9.789062 12.21875 -8.21875 L 12.21875 0 L 8.8125 0 L 8.8125 -8.140625 C 8.8125 -8.859375 8.65625 -9.378906 8.34375 -9.703125 C 8.03125 -10.023438 7.507812 -10.1875 6.78125 -10.1875 C 5.820312 -10.1875 5.101562 -9.78125 4.625 -8.96875 L 4.625 0 L 1.234375 0 L 1.234375 -12.71875 Z M 4.4375 -12.71875 "/></g></g></g><g fill="#000000" fill-opacity="1"><g transform="translate(46.913366, 22.369903)"><g><path d="M 4.890625 0 L 1.484375 0 L 1.484375 -18.0625 L 4.890625 -18.0625 Z M 4.890625 0 "/></g></g></g><g fill="#000000" fill-opacity="1"><g transform="translate(61.171403, 22.369903)"><g><path d="M 4.890625 0 L 1.484375 0 L 1.484375 -12.71875 L 4.890625 -12.71875 Z M 1.28125 -16.015625 C 1.28125 -16.523438 1.445312 -16.941406 1.78125 -17.265625 C 2.125 -17.597656 2.59375 -17.765625 3.1875 -17.765625 C 3.769531 -17.765625 4.234375 -17.597656 4.578125 -17.265625 C 4.921875 -16.941406 5.09375 -16.523438 5.09375 -16.015625 C 5.09375 -15.492188 4.914062 -15.066406 4.5625 -14.734375 C 4.21875 -14.410156 3.757812 -14.25 3.1875 -14.25 C 2.613281 -14.25 2.148438 -14.410156 1.796875 -14.734375 C 1.453125 -15.066406 1.28125 -15.492188 1.28125 -16.015625 Z M 1.28125 -16.015625 "/></g></g></g><g fill="#000000" fill-opacity="1"><g transform="translate(75.429439, 22.369903)"><g><path d="M 4.4375 -12.71875 L 4.53125 -11.25 C 5.445312 -12.382812 6.664062 -12.953125 8.1875 -12.953125 C 9.539062 -12.953125 10.546875 -12.554688 11.203125 -11.765625 C 11.859375 -10.972656 12.195312 -9.789062 12.21875 -8.21875 L 12.21875 0 L 8.8125 0 L 8.8125 -8.140625 C 8.8125 -8.859375 8.65625 -9.378906 8.34375 -9.703125 C 8.03125 -10.023438 7.507812 -10.1875 6.78125 -10.1875 C 5.820312 -10.1875 5.101562 -9.78125 4.625 -8.96875 L 4.625 0 L 1.234375 0 L 1.234375 -12.71875 Z M 4.4375 -12.71875 "/></g></g></g><g fill="#000000" fill-opacity="1"><g transform="translate(96.788661, 22.369903)"><g><path d="M 7.15625 0.234375 C 5.289062 0.234375 3.769531 -0.335938 2.59375 -1.484375 C 1.425781 -2.628906 0.84375 -4.15625 0.84375 -6.0625 L 0.84375 -6.390625 C 0.84375 -7.660156 1.085938 -8.800781 1.578125 -9.8125 C 2.078125 -10.820312 2.78125 -11.597656 3.6875 -12.140625 C 4.59375 -12.679688 5.625 -12.953125 6.78125 -12.953125 C 8.519531 -12.953125 9.890625 -12.40625 10.890625 -11.3125 C 11.890625 -10.21875 12.390625 -8.660156 12.390625 -6.640625 L 12.390625 -5.25 L 4.296875 -5.25 C 4.398438 -4.425781 4.726562 -3.757812 5.28125 -3.25 C 5.832031 -2.75 6.535156 -2.5 7.390625 -2.5 C 8.691406 -2.5 9.710938 -2.972656 10.453125 -3.921875 L 12.125 -2.0625 C 11.613281 -1.332031 10.921875 -0.765625 10.046875 -0.359375 C 9.179688 0.0351562 8.21875 0.234375 7.15625 0.234375 Z M 6.765625 -10.203125 C 6.097656 -10.203125 5.550781 -9.972656 5.125 -9.515625 C 4.707031 -9.066406 4.441406 -8.421875 4.328125 -7.578125 L 9.046875 -7.578125 L 9.046875 -7.84375 C 9.035156 -8.59375 8.832031 -9.171875 8.4375 -9.578125 C 8.050781 -9.992188 7.492188 -10.203125 6.765625 -10.203125 Z M 6.765625 -10.203125 "/></g></g></g></g></g><g transform="matrix(1, 0, 0, 1, 98, 11)"><g clip-path="url(#637e4001eb)"><g fill="#029bda" fill-opacity="1"><g transform="translate(0.725889, 54.415172)"><g><path d="M 23.375 0 L 23.375 -28.765625 L 33.800781 -28.765625 L 33.800781 -39.074219 L 1.054688 -39.074219 L 1.054688 -28.765625 L 11.539062 -28.765625 L 11.539062 0 Z M 23.375 0 "/></g></g></g><g fill="#029bda" fill-opacity="1"><g transform="translate(29.138358, 54.415172)"><g><path d="M 0.996094 -14.175781 C 0.996094 -4.863281 7.910156 0.703125 16.753906 0.703125 C 20.972656 0.703125 26.011719 -0.410156 28.824219 -2.8125 L 24.488281 -9.316406 C 23.082031 -8.203125 20.503906 -7.324219 18.101562 -7.324219 C 14.527344 -7.324219 12.476562 -9.082031 11.890625 -10.894531 L 31.109375 -10.894531 L 31.109375 -13.0625 C 31.109375 -23.023438 24.722656 -29 16.402344 -29 C 7.265625 -29 0.996094 -22.378906 0.996094 -14.175781 Z M 16.402344 -20.972656 C 19.800781 -20.972656 20.796875 -18.804688 21.089844 -17.574219 L 11.773438 -17.574219 C 12.125 -18.863281 13.179688 -20.972656 16.402344 -20.972656 Z M 16.402344 -20.972656 "/></g></g></g><g fill="#029bda" fill-opacity="1"><g transform="translate(59.191153, 54.415172)"><g><path d="M 0.996094 -14.175781 C 0.996094 -5.15625 7.910156 0.703125 16.871094 0.703125 C 23.316406 0.703125 27.300781 -2.285156 28.882812 -4.628906 L 22.085938 -11.070312 C 21.207031 -9.785156 19.566406 -8.613281 17.339844 -8.613281 C 14.351562 -8.613281 11.773438 -10.542969 11.773438 -14.175781 C 11.773438 -17.808594 14.351562 -19.683594 17.339844 -19.683594 C 19.566406 -19.683594 21.207031 -18.628906 22.085938 -17.28125 L 28.882812 -23.667969 C 27.300781 -26.070312 23.316406 -29 16.871094 -29 C 7.910156 -29 0.996094 -23.140625 0.996094 -14.175781 Z M 0.996094 -14.175781 "/></g></g></g><g fill="#029bda" fill-opacity="1"><g transform="translate(86.842063, 54.415172)"><g><path d="M 32.6875 0 L 32.6875 -20.210938 C 32.6875 -25.132812 29.820312 -29 23.257812 -29 C 18.277344 -29 15.171875 -26.949219 13.53125 -25.074219 L 13.53125 -39.074219 L 2.988281 -39.074219 L 2.988281 0 L 13.53125 0 L 13.53125 -17.457031 C 14.410156 -18.453125 15.640625 -19.683594 18.042969 -19.683594 C 20.5625 -19.683594 22.144531 -18.6875 22.144531 -15.757812 L 22.144531 0 Z M 32.6875 0 "/></g></g></g><g fill="#029bda" fill-opacity="1"><g transform="translate(120.702726, 54.415172)"><g><path d="M 49.5625 0 L 49.5625 -39.074219 L 33.214844 -39.074219 L 26.363281 -19.15625 L 19.507812 -39.074219 L 3.164062 -39.074219 L 3.164062 0 L 14.996094 0 L 14.996094 -24.664062 L 23.726562 0 L 29 0 L 37.726562 -24.664062 L 37.726562 0 Z M 49.5625 0 "/></g></g></g><g fill="#029bda" fill-opacity="1"><g transform="translate(171.669495, 54.415172)"><g><path d="M 29.820312 0 L 29.820312 -17.105469 C 29.820312 -26.539062 22.964844 -29 15.933594 -29 C 11.65625 -29 6.386719 -27.769531 2.578125 -24.722656 L 6.152344 -18.21875 C 8.378906 -19.917969 11.363281 -20.972656 14 -20.972656 C 17.457031 -20.972656 19.273438 -19.449219 19.273438 -17.457031 L 19.273438 -14.234375 C 17.75 -16.167969 14.410156 -17.339844 10.71875 -17.339844 C 6.503906 -17.339844 0.996094 -15.640625 0.996094 -8.613281 C 0.996094 -2.167969 6.503906 0.703125 10.71875 0.703125 C 14.234375 0.703125 17.691406 -0.703125 19.273438 -2.695312 L 19.273438 0 Z M 19.273438 -7.675781 C 18.570312 -6.679688 16.753906 -6.152344 15.113281 -6.152344 C 13.355469 -6.152344 11.421875 -6.679688 11.421875 -8.4375 C 11.421875 -10.195312 13.355469 -10.777344 15.113281 -10.777344 C 16.753906 -10.777344 18.570312 -10.253906 19.273438 -9.257812 Z M 19.273438 -7.675781 "/></g></g></g><g fill="#029bda" fill-opacity="1"><g transform="translate(202.659615, 54.415172)"><g><path d="M 13.472656 0 L 13.472656 -17.222656 C 14.644531 -18.628906 17.515625 -19.214844 19.742188 -19.214844 C 20.738281 -19.214844 21.617188 -19.097656 22.144531 -18.921875 L 22.144531 -29 C 18.921875 -29 15.230469 -27.125 13.472656 -25.074219 L 13.472656 -28.296875 L 2.929688 -28.296875 L 2.929688 0 Z M 13.472656 0 "/></g></g></g><g fill="#029bda" fill-opacity="1"><g transform="translate(223.749266, 54.415172)"><g><path d="M 14.820312 0.703125 C 18.394531 0.703125 20.855469 -0.175781 21.96875 -1.171875 L 20.09375 -9.140625 C 19.859375 -8.90625 18.921875 -8.613281 17.984375 -8.613281 C 16.578125 -8.613281 15.640625 -9.785156 15.640625 -11.246094 L 15.640625 -19.15625 L 21.382812 -19.15625 L 21.382812 -28.296875 L 15.640625 -28.296875 L 15.640625 -36.027344 L 5.097656 -36.027344 L 5.097656 -28.296875 L 0.410156 -28.296875 L 0.410156 -19.15625 L 5.097656 -19.15625 L 5.097656 -8.203125 C 5.097656 -2.285156 8.554688 0.703125 14.820312 0.703125 Z M 14.820312 0.703125 "/></g></g></g></g></g></svg>